<?xml version="1.0" standalone="no"?><!DOCTYPE svg PUBLIC "-//W3C//DTD SVG 1.1//EN" "http://www.w3.org/Graphics/SVG/1.1/DTD/svg11.dtd"><svg t="1731326628238" class="icon" viewBox="0 0 1024 1024" version="1.1" xmlns="http://www.w3.org/2000/svg" p-id="8324" xmlns:xlink="http://www.w3.org/1999/xlink" width="256" height="256"><path d="M437.337825 930.169263L4.042105 454.781754H256.898246l180.457543 475.387509z m-122.826106-475.387509H696.32l-162.043509 411.75579a26.947368 26.947368 0 0 0 50.158035 19.743438l169.804351-431.499228H1006.035088L521.862737 1001.004912 314.511719 454.781754z" fill="#0064FF" p-id="8325"></path><path d="M314.817123 455.033263l-8.802807-22.56393L449.086877 143.898947a26.947368 26.947368 0 0 0-48.289684-23.947228l-148.354246 299.223579a26.947368 26.947368 0 0 0-0.970105 21.737544l5.497263 14.102456H3.916351L209.758316 67.961263H812.014035L1006.394386 455.051228H314.817123z m326.781754-273.318175a26.947368 26.947368 0 1 0-48.271719 23.947228l61.565754 124.137544a26.947368 26.947368 0 1 0 48.289684-23.947228l-61.565754-124.137544z" fill="#37A4F7" p-id="8326"></path></svg>